<?xml version="1.0" encoding="utf-8"?>
<!-- Generator: Adobe Illustrator 16.0.0, SVG Export Plug-In . SVG Version: 6.00 Build 0)  -->
<!DOCTYPE svg PUBLIC "-//W3C//DTD SVG 1.1//EN" "http://www.w3.org/Graphics/SVG/1.1/DTD/svg11.dtd">
<svg version="1.1" id="Layer_1" xmlns="http://www.w3.org/2000/svg" xmlns:xlink="http://www.w3.org/1999/xlink" x="0px" y="0px"
	 width="200px" height="200px" viewBox="0 0 200 200" enable-background="new 0 0 200 200" xml:space="preserve">
<circle fill="#13AFBE" cx="99.144" cy="100.166" r="99.5"/>
<g>
	<path fill="#FFFFFF" d="M143.159,40.535c0-6.981-5.667-12.647-12.652-12.647c-1.499,0-2.937,0.276-4.265,0.761
		c-1.54-6.524-7.384-11.391-14.375-11.391c-8.052,0-14.598,6.457-14.759,14.474c-0.713-0.148-1.451-0.227-2.205-0.227
		c-5.988,0-10.844,4.849-10.844,10.842c0,4.9,3.258,9.035,7.716,10.379c0.896,0.296,1.852,0.462,2.857,0.462h36.509
		c1.11,0,2.186-0.216,3.17-0.587C139.438,50.993,143.159,46.199,143.159,40.535z"/>
	<g>
		<path fill="#A7DAE9" d="M174.499,59.96h-2.644c-0.188-0.932-0.443-1.831-0.766-2.706l2.208-1.274
			c0.527-0.308,0.711-0.981,0.405-1.516l-2.214-3.832c-0.308-0.529-0.987-0.711-1.512-0.405l-2.298,1.323
			c-0.615-0.703-1.287-1.358-2.008-1.958l1.278-2.211c0.305-0.53,0.122-1.208-0.407-1.514l-3.832-2.215
			c-0.53-0.303-1.204-0.122-1.511,0.408l-1.325,2.291c-0.88-0.299-1.789-0.527-2.722-0.688v-2.555c0-0.614-0.496-1.108-1.108-1.108
			h-4.426c-0.616,0-1.112,0.494-1.112,1.108v2.645c-0.926,0.185-1.826,0.439-2.7,0.762l-1.271-2.209
			c-0.31-0.532-0.988-0.711-1.521-0.406l-3.834,2.217c-0.527,0.301-0.707,0.979-0.402,1.51l1.325,2.296
			c-0.7,0.619-1.36,1.287-1.957,2.008l-2.212-1.279c-0.532-0.304-1.205-0.119-1.515,0.41l-2.217,3.833
			c-0.305,0.529-0.123,1.209,0.406,1.512l2.293,1.324c-0.297,0.881-0.528,1.789-0.688,2.722h-2.553c-0.615,0-1.113,0.496-1.113,1.11
			v4.426c0,0.613,0.498,1.107,1.113,1.107h2.644c0.184,0.926,0.438,1.833,0.759,2.705l-2.208,1.277
			c-0.531,0.305-0.709,0.98-0.404,1.508l2.213,3.839c0.304,0.525,0.98,0.708,1.512,0.402l2.297-1.323
			c0.618,0.702,1.29,1.362,2.01,1.959l-1.276,2.214c-0.307,0.53-0.125,1.206,0.403,1.511l3.837,2.213
			c0.529,0.305,1.205,0.125,1.508-0.405l1.327-2.289c0.881,0.294,1.789,0.526,2.721,0.685v2.559c0,0.612,0.495,1.103,1.105,1.103
			l4.43,0.003c0.613,0,1.107-0.494,1.107-1.106V81.3c0.927-0.188,1.828-0.44,2.704-0.76l1.276,2.208
			c0.307,0.53,0.977,0.709,1.512,0.405l3.834-2.216c0.529-0.303,0.708-0.982,0.403-1.515l-1.324-2.293
			c0.703-0.617,1.361-1.289,1.96-2.008l2.214,1.279c0.531,0.303,1.205,0.122,1.512-0.406l2.214-3.837
			c0.306-0.528,0.124-1.207-0.405-1.511l-2.291-1.326c0.297-0.875,0.527-1.785,0.688-2.716h2.557c0.609,0,1.104-0.498,1.105-1.11
			v-4.428C175.606,60.454,175.108,59.96,174.499,59.96z M154.077,75.012c-6.343,0-11.484-5.145-11.484-11.486
			c0-6.343,5.142-11.488,11.484-11.488c6.344,0,11.487,5.145,11.487,11.488C165.564,69.868,160.421,75.012,154.077,75.012z"/>
	</g>
	<path fill="#D1EBFA" d="M139.599,38.811h-1.428c-0.333,0-0.688-0.258-0.794-0.57l-0.266-0.646c-0.147-0.297-0.075-0.73,0.155-0.964
		l1.011-1.009c0.234-0.235,0.234-0.618,0-0.852l-1.563-1.562c-0.229-0.234-0.614-0.234-0.85,0l-1.01,1.009
		c-0.232,0.235-0.665,0.306-0.966,0.157l-0.643-0.267c-0.313-0.103-0.57-0.46-0.57-0.793v-1.428c0-0.33-0.272-0.603-0.604-0.603
		h-2.208c-0.332,0-0.601,0.273-0.601,0.603v1.428c0,0.333-0.257,0.69-0.571,0.793l-0.646,0.267
		c-0.299,0.149-0.731,0.078-0.965-0.157l-1.01-1.009c-0.234-0.234-0.62-0.234-0.851,0l-1.563,1.562
		c-0.232,0.233-0.232,0.617,0,0.852l1.012,1.009c0.234,0.234,0.304,0.667,0.155,0.964l-0.265,0.646
		c-0.106,0.313-0.465,0.57-0.793,0.57h-1.432c-0.327,0-0.599,0.272-0.599,0.602v2.207c0,0.333,0.271,0.602,0.599,0.602h1.432
		c0.328,0,0.687,0.258,0.793,0.572l0.265,0.647c0.148,0.295,0.079,0.729-0.155,0.964l-1.012,1.01c-0.232,0.233-0.232,0.617,0,0.85
		l1.563,1.564c0.23,0.233,0.616,0.233,0.851,0l1.01-1.011c0.233-0.234,0.666-0.304,0.965-0.157l0.646,0.266
		c0.314,0.106,0.571,0.459,0.571,0.794v1.425c0,0.333,0.269,0.604,0.601,0.604h2.208c0.331,0,0.604-0.271,0.604-0.604V47.72
		c0-0.335,0.258-0.688,0.57-0.794l0.643-0.266c0.301-0.147,0.733-0.077,0.966,0.157l1.01,1.011c0.235,0.233,0.62,0.233,0.85,0
		l1.563-1.564c0.234-0.233,0.234-0.617,0-0.85l-1.011-1.01c-0.23-0.234-0.303-0.668-0.155-0.964l0.266-0.647
		c0.106-0.314,0.461-0.572,0.794-0.572h1.428c0.333,0,0.602-0.269,0.602-0.602v-2.207C140.2,39.083,139.932,38.811,139.599,38.811z
		 M130.968,43.426c-1.606,0-2.911-1.301-2.911-2.909c0-1.606,1.305-2.909,2.911-2.909s2.911,1.303,2.911,2.909
		C133.879,42.125,132.574,43.426,130.968,43.426z"/>
	<path fill="#A7DAE9" d="M179.915,83.093h-0.896c-0.207,0-0.431-0.162-0.495-0.359l-0.168-0.404
		c-0.094-0.186-0.051-0.458,0.096-0.605l0.635-0.632c0.147-0.145,0.147-0.387,0-0.533l-0.979-0.979
		c-0.147-0.149-0.388-0.149-0.533,0l-0.633,0.631c-0.149,0.148-0.419,0.193-0.604,0.099l-0.405-0.166
		c-0.196-0.066-0.357-0.29-0.357-0.498v-0.895c0-0.207-0.169-0.376-0.378-0.376h-1.385c-0.205,0-0.374,0.169-0.374,0.376v0.895
		c0,0.208-0.163,0.432-0.359,0.498l-0.405,0.166c-0.185,0.094-0.458,0.049-0.604-0.099l-0.63-0.631
		c-0.146-0.149-0.389-0.149-0.536,0l-0.978,0.979c-0.147,0.146-0.147,0.388,0,0.533l0.633,0.632
		c0.146,0.147,0.189,0.419,0.097,0.605l-0.164,0.404c-0.065,0.197-0.291,0.359-0.496,0.359h-0.897c-0.206,0-0.377,0.168-0.377,0.376
		v1.383c0,0.208,0.171,0.378,0.377,0.378h0.897c0.205,0,0.431,0.159,0.496,0.358l0.164,0.405c0.093,0.184,0.049,0.457-0.097,0.603
		l-0.633,0.633c-0.147,0.147-0.147,0.388,0,0.532l0.978,0.98c0.147,0.146,0.39,0.146,0.536,0l0.63-0.634
		c0.146-0.146,0.419-0.19,0.604-0.098l0.405,0.167c0.196,0.068,0.359,0.291,0.359,0.499v0.895c0,0.209,0.169,0.376,0.374,0.376
		h1.385c0.209,0,0.378-0.167,0.378-0.376v-0.895c0-0.208,0.161-0.431,0.357-0.499l0.405-0.167c0.186-0.092,0.455-0.048,0.604,0.098
		l0.633,0.634c0.146,0.146,0.386,0.146,0.533,0l0.979-0.98c0.147-0.145,0.147-0.385,0-0.532l-0.635-0.633
		c-0.146-0.146-0.189-0.419-0.096-0.603l0.168-0.405c0.064-0.199,0.288-0.358,0.495-0.358h0.896c0.206,0,0.377-0.17,0.377-0.378
		v-1.383C180.292,83.262,180.121,83.093,179.915,83.093z M174.507,85.984c-1.009,0-1.824-0.816-1.824-1.822
		c0-1.009,0.815-1.824,1.824-1.824c1.008,0,1.822,0.815,1.822,1.824C176.329,85.168,175.515,85.984,174.507,85.984z"/>
	<path fill="#A7DAE9" d="M108.991,38.49c0-5.496-4.461-9.959-9.963-9.959c-1.182,0-2.314,0.217-3.362,0.601
		c-1.21-5.138-5.811-8.97-11.315-8.97c-6.341,0-11.497,5.084-11.624,11.397c-0.561-0.115-1.142-0.179-1.736-0.179
		c-4.717,0-8.542,3.82-8.542,8.54c0,3.86,2.567,7.115,6.079,8.173c0.707,0.231,1.459,0.363,2.247,0.363h28.751
		c0.878,0,1.723-0.169,2.5-0.461C106.06,46.725,108.991,42.951,108.991,38.49z"/>
	<g>
		<g>
			<path fill="#90C4D6" d="M77.217,147.832c-1.406,5.74-2.81,11.483-4.213,17.228c13.109,0,26.218,0,39.325,0
				c-1.403-5.744-2.808-11.487-4.213-17.228C97.818,147.832,87.517,147.832,77.217,147.832z"/>
			<path fill="#FFFFFF" d="M114.762,164.755h-44.19c-1.121,0-2.032,1.067-2.032,2.387v0.895h48.255v-0.895
				C116.794,165.822,115.886,164.755,114.762,164.755z"/>
			<path fill="#FFFFFF" d="M26.217,141.124v9.492c0,1.832,1.481,3.311,3.309,3.311h126.281c1.826,0,3.309-1.479,3.309-3.311v-9.492
				H26.217z"/>
			<path fill="#175079" d="M159.116,141.124v-80.39c0-1.831-1.482-3.312-3.309-3.312H29.526c-1.828,0-3.309,1.481-3.309,3.312v80.39
				H159.116z"/>
			<rect x="31.662" y="62.593" fill="#FFFFFF" width="122.011" height="73.043"/>
		</g>
		<g>
			<rect x="45.155" y="123.601" fill="#F26328" width="5.59" height="7.454"/>
			<rect x="56.334" y="116.894" fill="#F26328" width="5.591" height="14.161"/>
			<rect x="67.514" y="111.752" fill="#F26328" width="5.589" height="19.303"/>
			<rect x="78.693" y="116.4" fill="#F26328" width="5.588" height="14.654"/>
			<rect x="89.873" y="99.753" fill="#F26328" width="5.589" height="31.301"/>
			<rect x="101.052" y="105.343" fill="#F26328" width="5.587" height="25.712"/>
			<rect x="112.229" y="93.791" fill="#F26328" width="5.588" height="37.264"/>
			<rect x="123.408" y="83.357" fill="#F26328" width="5.591" height="47.697"/>
			<rect x="134.586" y="72.549" fill="#F26328" width="5.591" height="58.505"/>
		</g>
		<g>
			<rect x="39.759" y="71.107" fill="#DC4226" width="22.803" height="2.173"/>
			<rect x="39.759" y="76.629" fill="#A7DAE9" width="41.212" height="1.336"/>
			<rect x="39.759" y="80.73" fill="#A7DAE9" width="35.024" height="1.337"/>
			<rect x="39.759" y="84.832" fill="#A7DAE9" width="38.811" height="1.338"/>
			<rect x="39.759" y="88.936" fill="#A7DAE9" width="30.204" height="1.336"/>
			<path fill="#DC4226" d="M39.759,94.138v3.904h13.339v-3.904H39.759z M50.861,96.756h-8.867V95.42h8.867V96.756z"/>
		</g>
	</g>
	<g>
		<path fill="#9AD5DB" d="M39.262,123.06c-0.197,0-0.39-0.098-0.505-0.275c-0.18-0.278-0.101-0.65,0.178-0.831l31.854-20.634
			c0.187-0.122,0.426-0.129,0.62-0.021l9.523,5.331l11.715-18.353c0.091-0.143,0.237-0.24,0.403-0.269
			c0.168-0.028,0.336,0.014,0.47,0.116l10.029,7.715l33.026-28.489c0.251-0.217,0.631-0.188,0.847,0.062
			c0.217,0.252,0.19,0.631-0.062,0.848l-33.397,28.81c-0.216,0.186-0.532,0.195-0.758,0.021l-9.898-7.614l-11.667,18.279
			c-0.172,0.27-0.523,0.357-0.8,0.201l-9.702-5.433l-31.55,20.438C39.487,123.027,39.374,123.06,39.262,123.06L39.262,123.06z"/>
	</g>
	<circle fill="#DC4226" cx="40.103" cy="122.199" r="2.346"/>
	<circle fill="#DC4226" cx="70.755" cy="102.064" r="2.345"/>
	<path fill="#DC4226" d="M83.421,107.271c0,1.297-1.05,2.347-2.347,2.347c-1.296,0-2.346-1.05-2.346-2.347
		c0-1.293,1.049-2.345,2.346-2.345C82.371,104.927,83.421,105.979,83.421,107.271z"/>
	<circle fill="#DC4226" cx="93.295" cy="88.742" r="2.345"/>
	<circle fill="#DC4226" cx="104.014" cy="96.855" r="2.346"/>
	<circle fill="#DC4226" cx="136.968" cy="67.804" r="2.345"/>
	<g>
		<defs>
			<path id="SVGID_1_" d="M159.116,141.124v-80.39c0-1.831-1.482-3.312-3.309-3.312H29.526c-1.828,0-3.309,1.481-3.309,3.312v80.39
				H159.116z"/>
		</defs>
		<clipPath id="SVGID_2_">
			<use xlink:href="#SVGID_1_"  overflow="visible"/>
		</clipPath>
		<path clip-path="url(#SVGID_2_)" fill="#D1EBFA" d="M189.12,143.781l-17.934-18.021c-1.566-1.574-3.803-2.075-5.794-1.502
			c-0.069-0.086-0.129-0.177-0.21-0.258l-2.902-2.994c3.12-4.003,4.822-8.889,4.83-14.034c0.012-6.132-2.371-11.907-6.711-16.262
			c-4.339-4.354-10.106-6.757-16.24-6.768c-6.146-0.011-11.932,2.382-16.288,6.739c-4.335,4.334-6.73,10.092-6.738,16.209
			c-0.023,12.674,10.268,23.004,22.942,23.027c5.142,0.008,10.026-1.668,14.037-4.764l2.903,2.998
			c0.101,0.099,0.212,0.181,0.322,0.262c-0.514,1.95-0.011,4.114,1.514,5.646l17.934,18.019c2.289,2.303,6.014,2.312,8.317,0.02
			c0.002-0.003,0.004-0.007,0.01-0.01C191.404,149.796,191.41,146.081,189.12,143.781z"/>
		<path clip-path="url(#SVGID_2_)" fill="#D1EBFA" d="M63.257,114.172H20.325c-1.732,0-3.131,1.401-3.131,3.13v56.523
			c0,1.726,1.399,3.126,3.131,3.126h42.932c1.727,0,3.127-1.4,3.127-3.126v-56.523C66.384,115.573,64.984,114.172,63.257,114.172z"
			/>
	</g>
	<g>
		<path fill="#DC4226" d="M189.112,147.581c-0.006,0.003-0.008,0.006-0.01,0.011c-2.304,2.289-6.028,2.282-8.317-0.021
			l-17.934-18.02c-2.288-2.301-2.285-6.016,0.008-8.307c0.006-0.006,0.008-0.007,0.012-0.012c2.302-2.29,6.023-2.282,8.315,0.019
			l17.934,18.021C191.41,141.572,191.404,145.29,189.112,147.581L189.112,147.581z"/>
		<path fill="#F26328" d="M186.553,147.471c-0.883,0.878-2.328,0.873-3.213-0.015l-17.934-18.021
			c-0.884-0.888-0.882-2.329,0.002-3.213c0.896-0.891,2.34-0.889,3.226,0.003l17.931,18.019c0.883,0.887,0.883,2.328-0.002,3.217
			L186.553,147.471z"/>
		<path fill="#103754" d="M160.375,118.666L160.375,118.666c-4.36,4.36-10.15,6.754-16.3,6.745
			c-12.675-0.025-22.966-10.354-22.942-23.028c0.008-6.117,2.403-11.875,6.738-16.209c4.356-4.356,10.142-6.749,16.288-6.741
			c6.134,0.013,11.901,2.416,16.24,6.771c4.34,4.355,6.723,10.129,6.711,16.262C167.101,108.578,164.709,114.331,160.375,118.666
			L160.375,118.666z"/>
		<g>
			<path fill="#175079" d="M144.078,124.106c-5.782-0.008-11.223-2.275-15.315-6.383c-4.093-4.108-6.341-9.556-6.329-15.34
				c0.01-5.772,2.269-11.202,6.358-15.292c4.101-4.1,9.541-6.356,15.323-6.356c0.014,0,0.025,0,0.041,0l-0.005,2.894
				c-0.011,0-0.025,0-0.036,0c-5.011,0-9.725,1.955-13.278,5.509c-3.543,3.546-5.5,8.25-5.51,13.252
				c-0.01,5.011,1.938,9.731,5.486,13.289c3.545,3.562,8.258,5.525,13.269,5.535L144.078,124.106L144.078,124.106z"/>
		</g>
		<g>
			<path fill="none" d="M158.432,116.726"/>
		</g>
		<path fill="#9AD5DB" d="M132.03,90.332c-3.227,3.229-5.01,7.514-5.02,12.061c-0.014,9.433,7.643,17.12,17.074,17.136
			c4.578,0.009,8.883-1.774,12.13-5.021l0.002,0.001c3.227-3.227,5.004-7.507,5.014-12.055c0.009-4.561-1.768-8.858-4.998-12.101
			c-3.231-3.242-7.521-5.03-12.085-5.038C139.578,85.307,135.271,87.089,132.03,90.332L132.03,90.332z"/>
		<path fill="#D1EBFA" d="M156.232,90.354c-3.231-3.242-7.521-5.03-12.085-5.038c-1.281-0.003-2.549,0.141-3.771,0.413
			c-1.863,0.842-3.578,2.021-5.071,3.512c-3.225,3.227-5.007,7.511-5.014,12.061c-0.019,9.433,7.641,17.118,17.071,17.135
			c1.289,0.004,2.552-0.142,3.779-0.416c1.863-0.841,3.581-2.021,5.073-3.513l0.002,0.001c3.227-3.227,5.004-7.507,5.014-12.055
			C161.239,97.893,159.463,93.596,156.232,90.354z"/>
		<g>
			<path fill="#103754" d="M165.173,123.652c-1.149,1.146-3.011,1.144-4.157-0.009l-3.664-3.782
				c-1.144-1.148-1.141-3.006,0.002-4.151c0.002-0.003,0.005-0.004,0.009-0.007c1.149-1.144,3.011-1.142,4.158,0.01l3.662,3.781
				c1.145,1.149,1.143,3.007-0.004,4.153C165.179,123.647,165.175,123.651,165.173,123.652z"/>
		</g>
		<g>
			<defs>
				<path id="SVGID_3_" d="M132.03,90.332c-3.227,3.229-5.01,7.514-5.02,12.061c-0.014,9.433,7.643,17.12,17.074,17.136
					c4.578,0.009,8.883-1.774,12.13-5.021l0.002,0.001c3.227-3.227,5.004-7.507,5.014-12.055c0.009-4.561-1.768-8.858-4.998-12.101
					c-3.231-3.242-7.521-5.03-12.085-5.038C139.578,85.307,135.271,87.089,132.03,90.332L132.03,90.332z"/>
			</defs>
			<clipPath id="SVGID_4_">
				<use xlink:href="#SVGID_3_"  overflow="visible"/>
			</clipPath>
			<g clip-path="url(#SVGID_4_)">
				<rect x="121.232" y="60.639" fill="#F26328" width="10.047" height="85.718"/>
				<rect x="136.967" y="41.669" fill="#F26328" width="10.044" height="105.14"/>
			</g>
		</g>
	</g>
	<rect x="17.194" y="135.791" fill="#A7DAE9" width="49.19" height="18.432"/>
	<g>
		<g>
			<g>
				<path fill="#175079" d="M59.952,115.674H17.019c-1.731,0-3.129,1.402-3.129,3.131v56.523c0,1.725,1.398,3.126,3.129,3.126
					h42.933c1.725,0,3.127-1.401,3.127-3.126v-56.523C63.079,117.076,61.677,115.674,59.952,115.674z"/>
				<path fill="#FFFFFF" d="M38.485,176.856c-0.696,0-1.261-0.563-1.261-1.259c0-0.696,0.565-1.256,1.261-1.256
					c0.692,0,1.257,0.56,1.257,1.256C39.742,176.293,39.178,176.856,38.485,176.856z"/>
				<rect x="19.469" y="121.743" fill="#FFFFFF" width="38.028" height="50.643"/>
			</g>
		</g>
		<g>
			<g>
				<path fill="#90C4D6" d="M43.229,148.612c-0.233,0.706-0.605,1.348-1.097,1.883l3.741,5.229c1.894-1.632,3.251-3.862,3.768-6.405
					L43.229,148.612z"/>
				<path fill="#862A35" d="M39.406,141.983c2.181,0.451,3.831,2.29,4.049,4.548l6.405,0.707c0-0.073,0.01-0.144,0.01-0.218
					c0-6.004-4.599-10.927-10.464-11.457V141.983z"/>
				<path fill="#DC4226" d="M34.567,143.57c0.717-0.788,1.664-1.362,2.748-1.587v-6.42c-3.416,0.31-6.39,2.108-8.288,4.742
					L34.567,143.57z"/>
				<path fill="#F26328" d="M40.437,151.721c-0.637,0.281-1.336,0.442-2.079,0.442c-2.84,0-5.144-2.3-5.144-5.143
					c0-0.579,0.118-1.126,0.293-1.647l-5.543-3.266c-0.707,1.492-1.112,3.152-1.112,4.913c0,6.356,5.149,11.508,11.506,11.508
					c2.125,0,4.104-0.584,5.812-1.586L40.437,151.721z"/>
			</g>
			<g>
				<rect x="38.746" y="165.296" fill="#A7DAE9" width="10.958" height="0.973"/>
				<rect x="24.217" y="162.184" fill="#A7DAE9" width="10.96" height="0.973"/>
				<rect x="21.981" y="133.291" fill="#A7DAE9" width="10.963" height="0.973"/>
				<g>
					<polygon fill="#A7DAE9" points="35.199,163.25 34.735,163.133 35.753,159.08 36.217,159.197 35.199,163.25 					"/>
				</g>
				<g>
					<polygon fill="#A7DAE9" points="33.947,135.726 32.489,133.532 32.888,133.268 34.346,135.46 33.947,135.726 					"/>
				</g>
				<rect x="43.92" y="132.453" fill="#A7DAE9" width="10.958" height="0.972"/>
				<g>
					<polygon fill="#A7DAE9" points="42.654,135.558 42.244,135.311 43.965,132.439 44.375,132.685 42.654,135.558 					"/>
				</g>
				<g>
					<polygon fill="#A7DAE9" points="49.221,165.559 46.845,155.522 47.311,155.412 49.686,165.447 49.221,165.559 					"/>
				</g>
			</g>
		</g>
	</g>
</g>
</svg>
