<?xml version="1.0" encoding="UTF-8" ?>
<!DOCTYPE svg PUBLIC "-//W3C//DTD SVG 1.1//EN" "http://www.w3.org/Graphics/SVG/1.1/DTD/svg11.dtd">
<svg width="390pt" height="390pt" viewBox="0 0 390 390" version="1.1" xmlns="http://www.w3.org/2000/svg">
<g id="#00a0d9ff">
<path fill="#00a0d9" opacity="1.00" d=" M 152.39 43.69 C 163.60 42.09 175.47 43.05 185.60 48.46 C 201.22 56.34 212.42 72.51 213.81 90.01 C 215.24 103.65 211.11 117.80 202.33 128.37 C 210.81 138.23 219.77 147.69 228.25 157.55 C 239.00 147.92 253.78 143.03 268.15 144.50 C 281.74 145.72 294.70 152.59 303.29 163.20 C 311.35 156.31 319.29 149.27 327.34 142.36 C 320.75 130.72 322.07 115.04 330.86 104.89 C 336.78 97.80 345.74 93.28 355.02 93.16 C 364.93 92.69 374.93 97.10 381.30 104.69 C 390.42 115.24 391.53 131.69 384.29 143.53 C 379.67 151.15 371.81 156.73 363.09 158.54 C 353.75 160.75 343.60 158.25 336.01 152.48 C 327.61 160.00 319.05 167.33 310.61 174.79 C 317.98 190.93 316.58 210.85 306.64 225.61 C 299.01 237.17 286.66 245.54 273.00 248.04 C 262.42 249.78 251.22 248.92 241.45 244.27 C 226.13 237.42 214.64 222.68 211.82 206.12 C 209.28 192.99 212.14 178.88 219.60 167.77 C 210.69 157.67 201.48 147.84 192.72 137.61 C 183.78 143.88 172.98 147.68 162.00 147.46 C 149.62 147.72 137.43 143.01 128.01 135.08 C 116.44 146.70 104.30 157.73 92.74 169.35 C 86.44 169.67 80.12 169.73 73.82 169.30 C 78.10 164.44 82.99 160.17 87.54 155.56 C 98.19 145.57 108.62 135.35 119.11 125.19 C 107.31 108.49 106.61 84.89 117.54 67.59 C 125.09 55.17 138.08 46.25 152.39 43.69 M 150.03 64.93 C 145.69 67.67 143.29 72.30 140.57 76.41 C 137.15 76.90 133.48 77.40 130.85 79.88 C 123.51 85.69 121.49 96.43 124.68 104.98 C 126.66 110.45 131.14 115.32 136.98 116.54 C 143.14 117.01 149.32 116.61 155.49 116.77 C 155.44 113.94 155.45 111.11 155.50 108.28 C 151.13 108.30 146.76 108.39 142.40 108.24 C 148.09 101.02 154.72 94.55 160.94 87.76 C 161.21 87.63 161.74 87.35 162.00 87.21 C 166.91 91.54 170.81 96.89 175.47 101.48 C 177.33 103.72 180.08 105.46 180.92 108.38 C 176.05 108.29 171.19 108.30 166.32 108.30 C 166.32 111.12 166.33 113.95 166.32 116.78 C 173.18 116.49 180.10 117.22 186.92 116.38 C 196.95 113.46 201.74 101.42 199.48 91.80 C 197.97 83.78 191.04 76.12 182.38 76.65 C 180.04 71.67 176.71 66.98 171.91 64.12 C 165.34 59.89 156.28 60.22 150.03 64.93 M 355.17 99.74 C 355.14 100.94 355.13 102.15 355.13 103.35 C 352.03 104.13 348.88 105.31 346.88 107.94 C 343.08 112.15 343.97 119.23 348.12 122.88 C 351.87 126.04 356.94 127.12 360.69 130.27 C 363.76 132.71 362.01 138.39 358.10 138.67 C 354.37 139.45 351.34 136.94 348.49 134.99 C 347.79 136.29 346.87 137.51 346.44 138.94 C 347.22 140.27 348.08 141.55 348.68 142.98 C 350.83 143.82 353.06 144.45 355.31 144.97 C 355.30 146.52 355.27 148.06 355.26 149.61 C 356.26 149.62 358.24 149.65 359.23 149.67 C 359.18 148.15 359.21 146.63 359.31 145.12 C 361.47 144.02 363.97 143.40 365.61 141.49 C 369.40 137.86 369.70 131.90 368.02 127.20 C 365.64 121.52 358.91 120.66 354.17 117.79 C 351.25 116.44 351.33 111.63 354.36 110.45 C 357.42 108.55 360.93 110.65 363.39 112.59 C 364.65 111.23 365.91 109.86 367.21 108.53 C 365.43 105.53 362.09 104.26 358.90 103.36 C 358.83 102.15 358.78 100.93 358.74 99.72 C 357.54 99.73 356.35 99.74 355.17 99.74 M 256.43 164.57 C 256.13 170.98 256.38 177.40 256.26 183.82 C 254.39 184.98 252.62 186.29 250.79 187.52 C 250.63 185.57 250.46 183.62 250.32 181.67 C 246.40 181.31 242.45 181.44 238.52 181.52 C 237.81 186.68 237.88 191.91 237.94 197.11 C 233.64 200.30 229.35 203.50 224.97 206.56 C 225.85 207.80 226.81 209.00 227.79 210.17 C 231.04 207.48 234.53 205.11 237.80 202.45 C 238.04 207.32 238.33 212.21 237.94 217.08 C 238.26 217.77 238.59 218.45 238.93 219.14 C 242.79 218.98 246.76 219.62 250.54 218.55 C 250.52 210.03 250.64 201.53 250.57 193.02 C 252.46 191.75 254.31 190.42 256.27 189.24 C 256.34 198.51 256.25 207.77 256.29 217.03 C 255.80 218.72 257.67 219.17 258.96 219.12 C 262.20 219.21 265.51 219.46 268.68 218.60 C 268.79 209.33 268.59 200.05 268.79 190.77 C 270.68 192.05 272.49 193.45 274.24 194.92 C 274.77 202.70 274.25 210.51 274.38 218.30 C 277.39 219.73 280.83 219.13 284.04 219.13 C 285.30 219.22 287.06 218.77 286.93 217.16 C 286.95 210.83 287.05 204.51 286.88 198.18 C 291.22 194.08 295.28 189.68 299.62 185.57 C 301.44 183.86 302.85 187.04 304.26 187.95 C 305.59 183.90 305.80 179.60 306.69 175.46 C 302.40 175.65 298.31 177.10 294.11 177.87 C 295.17 179.09 296.33 180.24 297.60 181.26 C 294.12 184.86 290.69 188.55 286.91 191.84 C 286.47 186.09 287.57 180.08 286.49 174.50 C 282.83 173.09 278.29 173.61 274.47 174.52 C 274.27 179.35 274.52 184.18 274.46 189.01 C 272.40 187.83 270.52 186.40 268.70 184.88 C 268.68 178.11 268.82 171.33 268.58 164.55 C 264.55 164.06 260.46 164.05 256.43 164.57 Z" />
<path fill="#00a0d9" opacity="1.00" d=" M 127.47 208.63 C 133.78 207.66 140.73 208.00 146.11 211.82 C 152.50 215.88 155.63 223.62 155.57 231.00 C 156.06 238.41 154.15 246.35 148.77 251.72 C 138.05 262.72 115.96 258.06 111.57 243.00 C 109.61 234.96 109.52 225.83 113.74 218.45 C 116.59 213.37 121.79 209.77 127.47 208.63 M 126.82 220.76 C 120.44 225.98 120.69 235.86 124.28 242.61 C 127.65 248.25 136.65 248.87 140.77 243.73 C 145.01 238.60 144.88 231.13 142.92 225.09 C 141.89 221.96 139.19 219.77 136.20 218.60 C 132.96 218.54 129.40 218.49 126.82 220.76 Z" />
<path fill="#00a0d9" opacity="1.00" d=" M 32.93 217.97 C 36.99 208.50 49.89 206.49 58.47 210.55 C 62.76 211.86 63.36 219.30 59.02 220.89 C 55.25 222.45 51.81 218.82 48.00 219.48 C 45.72 219.57 44.36 221.57 43.03 223.12 C 47.99 227.68 55.84 226.69 60.84 231.35 C 68.18 238.20 65.16 252.10 55.97 255.83 C 49.30 258.39 41.61 257.32 35.15 254.65 C 30.62 252.98 30.20 245.36 34.95 243.74 C 38.16 243.28 40.98 245.38 44.06 245.92 C 47.01 246.79 51.33 247.22 52.93 243.93 C 54.28 241.88 52.42 239.50 50.52 238.70 C 45.40 236.47 39.31 236.02 35.15 231.94 C 31.48 228.33 31.74 222.57 32.93 217.97 Z" />
<path fill="#00a0d9" opacity="1.00" d=" M 75.61 213.93 C 75.41 211.21 78.49 209.36 80.94 209.70 C 86.71 209.77 92.48 209.56 98.24 209.79 C 103.03 210.78 103.85 218.77 98.94 220.16 C 94.68 220.40 90.40 220.15 86.13 220.20 C 86.17 222.89 86.17 225.59 86.17 228.29 C 90.46 228.29 94.78 227.95 99.05 228.48 C 102.08 230.53 102.61 236.12 99.06 237.84 C 94.81 238.60 90.43 237.96 86.13 238.18 C 86.17 241.03 86.18 243.88 86.15 246.73 C 90.45 246.85 94.77 246.50 99.06 246.91 C 103.68 247.47 104.07 254.85 100.01 256.37 C 92.64 256.69 85.24 256.52 77.87 256.42 C 77.11 255.65 76.36 254.89 75.62 254.12 C 75.56 240.72 75.56 227.32 75.61 213.93 Z" />
</g>
<g id="#797979ff">
<path fill="#797979" opacity="1.00" d=" M 0.00 175.68 C 0.61 171.93 4.09 168.81 7.98 169.22 C 29.93 169.27 51.88 169.11 73.82 169.30 C 80.12 169.73 86.44 169.67 92.74 169.35 C 118.81 169.03 144.89 169.33 170.97 169.20 C 173.37 169.30 176.21 168.95 178.06 170.85 C 180.83 172.99 181.11 176.72 181.19 179.95 C 181.11 218.30 181.25 256.65 181.12 294.99 C 181.43 299.62 178.08 304.73 173.03 304.37 C 118.04 304.43 63.04 304.40 8.04 304.38 C 4.08 304.70 0.32 301.57 0.00 297.59 L 0.00 175.68 M 9.10 187.92 C 9.02 213.94 9.11 239.97 9.10 265.99 C 9.08 270.04 8.48 274.23 9.73 278.17 C 11.01 280.91 14.08 282.07 16.96 281.84 C 65.97 281.86 114.99 281.87 164.01 281.84 C 167.13 282.23 169.57 280.32 171.42 278.04 C 172.00 273.06 171.70 268.03 171.77 263.03 C 171.77 238.70 171.76 214.37 171.78 190.03 C 171.78 188.04 171.59 186.07 171.38 184.10 C 169.63 182.35 167.71 180.19 164.96 180.58 C 115.30 180.57 65.62 180.47 15.97 180.56 C 11.97 180.10 8.67 184.08 9.10 187.92 M 88.15 288.22 C 86.89 289.54 85.73 291.12 86.15 293.08 C 85.97 296.55 90.64 297.93 93.09 296.06 C 95.15 294.59 95.47 291.06 93.63 289.33 C 92.37 287.60 89.96 288.48 88.15 288.22 Z" />
<path fill="#797979" opacity="1.00" d=" M 59.62 319.12 C 58.53 315.15 60.38 310.04 64.94 309.66 C 81.63 309.51 98.33 309.64 115.02 309.59 C 118.44 309.42 121.49 312.60 121.45 315.98 C 121.70 319.39 118.58 322.89 115.07 322.57 C 98.69 322.59 82.30 322.59 65.92 322.57 C 63.19 323.00 61.37 320.80 59.62 319.12 Z" />
</g>
</svg>
