<svg xmlns="http://www.w3.org/2000/svg" viewBox="0 0 250 250" width="250" height="250"><style type="text/css">.st0{opacity:0.1;fill:#018F95;enable-background:new ;} .st1{fill:#01C0C8;} .st2{fill:#018F95;} .st3{fill:#60DDDC;}</style><path class="st0" d="M125 22.2c-56.7 0-102.8 46.1-102.8 102.8s46.1 102.8 102.8 102.8 102.8-46.1 102.8-102.8-46.1-102.8-102.8-102.8z"/><path class="st1" d="M118.8 116.5h12.5c3.5 0 6.3 2.8 6.3 6.3v37.5c0 3.5-2.8 6.3-6.3 6.3h-12.5c-3.5 0-6.3-2.8-6.3-6.3v-37.5c0-3.5 2.8-6.3 6.3-6.3z"/><path class="st2" d="M151.3 81.5h12.5c3.5 0 6.3 2.8 6.3 6.3v72.5c0 3.5-2.8 6.3-6.3 6.3h-12.5c-3.5 0-6.3-2.8-6.3-6.3v-72.5c0-3.5 2.8-6.3 6.3-6.3z"/><path class="st3" d="M86.3 136.5h12.5c3.5 0 6.3 2.8 6.3 6.3v17.5c0 3.5-2.8 6.3-6.3 6.3h-12.5c-3.5 0-6.3-2.8-6.3-6.3v-17.5c0-3.5 2.8-6.3 6.3-6.3zM117.5 81.5h-25l9 9-20.1 20 7.1 7.1 20-20.1 9 9z"/></svg>